#!OML:ASF F:\VICON\USERDATA\INSTALL\rory3\rory3.ASF
:FULLY-SPECIFIED
:DEGREES
63
root 0.653795712805746 17.871389141629173 25.117101190672678 -3.0859159290999223 -1.783548238437721 1.7591073868631466
lfemur -1.1614776941892258 -3.733157125252964 -27.34236913032035
ltibia 24.24903475359014
lfoot -6.804805219713321 1.3127400728435756
ltoes -5.485852615570507
rfemur -24.265088892958868 1.621774439396277 20.52875274935878
rtibia 45.48068843701735
rfoot -7.197584574955374 -7.925792337526058
rtoes 3.47963650711187
lowerback 10.21512627310524 0.03144368131666131 -1.982953441732583
upperback 0.7398628285680673 0.5386993997383485 0.950295602017114
thorax -4.837794730032669 0.22260791742280772 1.8573608831509199
lowerneck -16.57811740403423 -2.907948452386221 -1.9051909342124824
upperneck 20.31252794041362 -3.5501193453006326 1.326174691256754
head 9.240390628959975 -1.7415589054640868 0.26143205604349284
lclavicle -1.952311975419407e-15 9.076245054298636e-16
lhumerus -28.475521475171366 -0.4161552538304558 82.8391603845427
lradius 24.845352024849042
lwrist 4.863732096077725
lhand -27.158255242315352 23.201959758824128
lfingers 7.12502
lthumb -0.3262461837808376 53.78896778465945
rclavicle -1.9542094016612034e-15 9.05876995281438e-16
rhumerus -29.923446979441653 -18.98736893865674 -79.17576554882696
rradius 26.03620327693621
rwrist 5.613588279938047
rhand -17.901785404416675 22.387742865256758
rfingers 7.12502
rthumb 8.492224290036425 -7.138633240866668
64
root 0.6170797471942746 17.84575540874171 25.948689132082094 -2.4775253914611404 -0.962818863268533 2.1719958870797273
lfemur 1.6863706502698328 -3.4200320259533865 -27.317918447739533
ltibia 21.250844712725467
lfoot -6.857432064817955 0.7710108101075055
ltoes -5.646423656042156
rfemur -24.882452993107893 2.7104673156890975 19.96951084440778
rtibia 40.843701282123774
rfoot -7.7349785615271545 -8.393945353622549
rtoes 3.1133642236652217
lowerback 10.079805418842891 -0.2171427023398862 -2.4639605041641417
upperback 0.7550197261154014 0.07545969631289595 1.00912245315436
thorax -4.766466640189022 0.09445785615731023 2.1223598544752145
lowerneck -16.609697689379125 -2.916125173779063 -1.9259989284434271
upperneck 20.259532867788156 -3.585025821550372 1.4051697640847416
head 9.222420180901961 -1.7475809261999258 0.2670497094796289
lclavicle -1.952311975419493e-15 9.076245054297844e-16
lhumerus -26.623610288615502 -2.2452082081669413 82.91186754429935
lradius 25.35127473421223
lwrist 5.141834855096603
lhand -27.254312689815414 23.00240774172711
lfingers 7.12502
lthumb -0.34770643112367794 53.743000987424914
rclavicle -1.954209401660967e-15 9.058769952816553e-16
rhumerus -30.441612895627305 -19.89377697583181 -78.85701445825634
rradius 25.641469446274158
rwrist 5.8472065069585755
rhand -17.869185639136475 22.469655194315298
rfingers 7.12502
rthumb 8.487285997098308 -7.123026628557292
65
root 0.5617082935274296 17.80188416830417 26.39262819773332 -1.9100030521445146 -0.23454139973331145 2.48998730012759
lfemur 5.465299183459399 -2.720491068071498 -27.146418282915395
ltibia 19.529104284210362
lfoot -6.264760505167536 0.7044597193983395
ltoes -5.746883141978766
rfemur -24.923240445980873 4.029987484360226 19.16138860796809
rtibia 36.09378508462146
rfoot -8.000356637591805 -8.713196570280228
rtoes 2.613474751510254
lowerback 9.935970129603021 -0.39261949498562 -2.747443944154533
upperback 0.7601994851875781 -0.3180722645192806 1.0615360045690432
thorax -4.704776114523733 -0.004325381366796943 2.3295995697051546
lowerneck -16.630226944411987 -2.9338922752778456 -1.9715536110832526
upperneck 20.218566682204973 -3.6258073602542225 1.4432254874623904
head 9.211150525047547 -1.7576836629731591 0.2775657112765101
lclavicle -1.9523119754195076e-15 9.07624505429771e-16
lhumerus -24.932231683485668 -3.765520589981289 82.88161650999838
lradius 25.688904799660023
lwrist 5.47414530799682
lhand -27.210060564982708 23.14114304448746
lfingers 7.12502
lthumb -0.3334238861019209 53.80015197621339
rclavicle -1.9542094016608575e-15 9.058769952817566e-16
rhumerus -30.973812512859144 -20.8803449212821 -78.36579406841521
rradius 25.147971233964473
rwrist 6.214396800554079
rhand -17.842534789399068 22.558489479913753
rfingers 7.12502
rthumb 8.4582944031157 -7.14983335557638
66
root 0.49439911916801127 17.73889831670973 26.993525551409924 -1.5040638282535301 0.3671466852179317 2.763588746651679
lfemur 8.856117921211329 -2.5590944695173263 -27.259198225324976
ltibia 19.32915527478936
lfoot -4.9912136933067535 0.5888588492858788
ltoes -6.3232032214924905
rfemur -25.002255777106214 4.99574723396947 18.45111868271078
rtibia 32.7945717093503
rfoot -8.116830030283635 -8.714574093782389
rtoes 2.2671659234639607
lowerback 9.782617841795151 -0.4909861452218648 -2.8457388852186876
upperback 0.7516471291759164 -0.6547347036865738 1.10540781956154
thorax -4.65694617000469 -0.08309346375634519 2.4471948766694114
lowerneck -16.624445655736803 -2.943796570775411 -2.0084841492290892
upperneck 20.213526240589882 -3.6674509769465122 1.484529233687385
head 9.198664045926261 -1.7723192761341777 0.2832865210818375
lclavicle -1.9523119754188903e-15 9.076245054303393e-16
lhumerus -23.613310074613118 -4.968895796666925 82.77405868370886
lradius 25.86522385767623
lwrist 5.769522156601093
lhand -27.32185037013835 22.913460781935726
lfingers 7.12502
lthumb -0.3862293187718884 53.70623112509651
rclavicle -1.9542094016606437e-15 9.058769952819535e-16
rhumerus -31.524039205869343 -22.05479511224776 -77.7901087871587
rradius 24.585504286556493
rwrist 6.746675716883503
rhand -17.81629737227767 22.622049757013272
rfingers 7.12502
rthumb 8.439154445085087 -7.157285877709117
